<svg xmlns="http://www.w3.org/2000/svg" viewBox="0 0 153.03 59.36"><defs><style>.cls-1{fill:#231f20}.cls-2{fill:#188b43}</style></defs><title>logo_sm</title><g id="Layer_2" data-name="Layer 2"><g id="Layer_1-2" data-name="Layer 1"><path class="cls-1" d="M45.49 41.42a6.66 6.66 0 0 0-2.49-1.7 9 9 0 0 0-3.51-.65 6.59 6.59 0 0 0-4.22 1.09 3.65 3.65 0 0 0-1.32 3 3.28 3.28 0 0 0 .35 1.62 3.09 3.09 0 0 0 1.09 1.09 7.65 7.65 0 0 0 1.89.8q1.15.34 2.72.68a29.62 29.62 0 0 1 3.15.83 9.06 9.06 0 0 1 2.39 1.15A4.79 4.79 0 0 1 47.09 51a5.21 5.21 0 0 1 .52 2.46 5.54 5.54 0 0 1-.61 2.61 5.22 5.22 0 0 1-1.63 1.85A7.27 7.27 0 0 1 42.9 59a13.35 13.35 0 0 1-3.17.35A13 13 0 0 1 31 56.19l1-1.75a8.5 8.5 0 0 0 1.4 1.17 10.13 10.13 0 0 0 1.82 1 11.52 11.52 0 0 0 2.14.65 12.07 12.07 0 0 0 2.4.23 7.52 7.52 0 0 0 4.08-.94 3.15 3.15 0 0 0 1.46-2.85 3.27 3.27 0 0 0-.38-1.7 3.6 3.6 0 0 0-1.25-1.2 8.85 8.85 0 0 0-2.06-.88q-1.23-.37-2.86-.74t-3-.83a8 8 0 0 1-2.19-1.08 4.19 4.19 0 0 1-1.34-1.55 5 5 0 0 1-.45-2.23 6.14 6.14 0 0 1 .57-2.69 5.29 5.29 0 0 1 1.62-2 7.65 7.65 0 0 1 2.46-1.2 11.12 11.12 0 0 1 3.14-.42 10.72 10.72 0 0 1 3.89.66 10.46 10.46 0 0 1 3.09 1.86zm21.27-2.19H59v19.95h-2.18V39.23H49v-1.91h17.76zm11.05 20.1a9.25 9.25 0 0 1-4.17-.94 10.36 10.36 0 0 1-3.25-2.49 11.32 11.32 0 0 1-2.09-3.56 11.73 11.73 0 0 1-.74-4.09 11.36 11.36 0 0 1 .78-4.19 11.55 11.55 0 0 1 2.17-3.54 10.49 10.49 0 0 1 3.26-2.45 9.21 9.21 0 0 1 4.06-.91 9 9 0 0 1 4.17 1 10.48 10.48 0 0 1 3.23 2.54 11.74 11.74 0 0 1 2.08 3.56 11.52 11.52 0 0 1 .74 4 11.36 11.36 0 0 1-.78 4.19A11.5 11.5 0 0 1 85.12 56a10.43 10.43 0 0 1-3.25 2.43 9.21 9.21 0 0 1-4.06.9zm-8.1-11.08a10.18 10.18 0 0 0 .58 3.43A9.32 9.32 0 0 0 72 54.61a8.16 8.16 0 0 0 2.55 2 7.13 7.13 0 0 0 3.29.75 7 7 0 0 0 3.35-.8 8.18 8.18 0 0 0 2.55-2.09 9.68 9.68 0 0 0 1.62-2.92 10.05 10.05 0 0 0 0-6.76 9.4 9.4 0 0 0-1.68-2.91 8.28 8.28 0 0 0-2.55-2 7.08 7.08 0 0 0-3.26-.75 7.16 7.16 0 0 0-3.35.78A8 8 0 0 0 71.9 42a9.66 9.66 0 0 0-1.62 2.92 10 10 0 0 0-.57 3.33zm22.41 10.93V37.32h9.23a5.67 5.67 0 0 1 2.6.6 6.86 6.86 0 0 1 2 1.57 7.21 7.21 0 0 1 1.34 2.2 6.85 6.85 0 0 1 .48 2.49 7.4 7.4 0 0 1-.35 2.29 7.1 7.1 0 0 1-1 2 6 6 0 0 1-1.42 1.46 5.39 5.39 0 0 1-2 .82l5.36 8.43h-2.43l-5.14-8.06h-6.52v8.06zm2.15-10h7.14a3.66 3.66 0 0 0 1.74-.42 4.14 4.14 0 0 0 1.34-1.12 5.46 5.46 0 0 0 .86-1.6 5.72 5.72 0 0 0 .31-1.88 5.18 5.18 0 0 0-.35-1.89 5.23 5.23 0 0 0-1-1.59 4.57 4.57 0 0 0-1.42-1.08 3.84 3.84 0 0 0-1.71-.4h-7zm17.95 10V37.32h2.15v21.86zm22.31-1.91v1.91h-14.68V37.32h14.4v1.91H122v7.88h10.68v1.82H122v8.34zm16.38-15.85a6.66 6.66 0 0 0-2.46-1.69 9 9 0 0 0-3.51-.65 6.59 6.59 0 0 0-4.22 1.09 3.65 3.65 0 0 0-1.32 3 3.28 3.28 0 0 0 .35 1.62 3.09 3.09 0 0 0 1.09 1.09 7.65 7.65 0 0 0 1.89.8q1.15.34 2.72.68a29.62 29.62 0 0 1 3.15.83 9.06 9.06 0 0 1 2.4 1.12 4.79 4.79 0 0 1 1.51 1.69 5.21 5.21 0 0 1 .52 2.46 5.54 5.54 0 0 1-.58 2.62 5.22 5.22 0 0 1-1.63 1.85 7.27 7.27 0 0 1-2.5 1.07 13.35 13.35 0 0 1-3.17.35 13 13 0 0 1-8.77-3.17l1.08-1.75a8.5 8.5 0 0 0 1.4 1.17 10.13 10.13 0 0 0 1.82 1 11.52 11.52 0 0 0 2.14.65 12.07 12.07 0 0 0 2.4.23 7.52 7.52 0 0 0 4.08-.94 3.15 3.15 0 0 0 1.46-2.85 3.27 3.27 0 0 0-.42-1.71 3.6 3.6 0 0 0-1.25-1.2 8.85 8.85 0 0 0-2.06-.88q-1.23-.37-2.86-.74t-3-.83a8 8 0 0 1-2.17-1.1 4.19 4.19 0 0 1-1.34-1.55 5 5 0 0 1-.45-2.23 6.14 6.14 0 0 1 .57-2.69 5.29 5.29 0 0 1 1.62-2 7.65 7.65 0 0 1 2.46-1.2 11.12 11.12 0 0 1 3.14-.42 10.72 10.72 0 0 1 3.89.66 10.46 10.46 0 0 1 3.11 1.89z"/><path class="cls-2" d="M11.28 18.86a13.78 13.78 0 0 1-4.52-.71 11.19 11.19 0 0 1-3.57-2 8.93 8.93 0 0 1-2.34-3A8.51 8.51 0 0 1 0 9.43a8.47 8.47 0 0 1 .84-3.76 9 9 0 0 1 2.34-3 11.19 11.19 0 0 1 3.57-2A13.78 13.78 0 0 1 11.28 0a13.77 13.77 0 0 1 4.52.71 11.19 11.19 0 0 1 3.57 2 9.2 9.2 0 0 1 2.36 3 8.32 8.32 0 0 1 .86 3.76 8.36 8.36 0 0 1-.86 3.75 9.15 9.15 0 0 1-2.36 3 11.19 11.19 0 0 1-3.57 2 13.77 13.77 0 0 1-4.52.64zm0-4.93A10.73 10.73 0 0 0 14 13.6a7 7 0 0 0 2.14-.93 4.45 4.45 0 0 0 1.38-1.43A3.51 3.51 0 0 0 18 9.43a3.58 3.58 0 0 0-.48-1.85 4.45 4.45 0 0 0-1.38-1.43A7 7 0 0 0 14 5.23a10.73 10.73 0 0 0-2.74-.33 10.5 10.5 0 0 0-2.72.33 7 7 0 0 0-2.12.93 4.44 4.44 0 0 0-1.36 1.42 3.57 3.57 0 0 0-.48 1.85 3.5 3.5 0 0 0 .48 1.81 4.45 4.45 0 0 0 1.38 1.43 7 7 0 0 0 2.12.93 10.5 10.5 0 0 0 2.72.33zm-6.4 23.9H.37V23h4.5v5.19h11.28a4 4 0 0 1-.91-1 14.21 14.21 0 0 1-.87-1.55 10.85 10.85 0 0 1-.67-1.74 5.77 5.77 0 0 1-.26-1.59h4.65a4.08 4.08 0 0 0 .43 1.61 13.74 13.74 0 0 0 1 1.86 15.48 15.48 0 0 0 1.17 1.59 3.92 3.92 0 0 0 .91.86v5H4.88zm6.4 21.53a13.78 13.78 0 0 1-4.52-.71 11.19 11.19 0 0 1-3.57-2 8.93 8.93 0 0 1-2.34-3 8.84 8.84 0 0 1 0-7.51 9 9 0 0 1 2.34-3 11.19 11.19 0 0 1 3.57-2 13.78 13.78 0 0 1 4.52-.71 13.77 13.77 0 0 1 4.52.71 11.19 11.19 0 0 1 3.57 2 9.2 9.2 0 0 1 2.36 3 8.67 8.67 0 0 1 0 7.51 9.15 9.15 0 0 1-2.36 3 11.19 11.19 0 0 1-3.57 2 13.77 13.77 0 0 1-4.52.71zm0-4.93A10.73 10.73 0 0 0 14 54.1a7 7 0 0 0 2.14-.93 4.45 4.45 0 0 0 1.38-1.43 3.51 3.51 0 0 0 .48-1.81 3.58 3.58 0 0 0-.48-1.85 4.45 4.45 0 0 0-1.38-1.43 7 7 0 0 0-2.14-.92 10.73 10.73 0 0 0-2.74-.33 10.5 10.5 0 0 0-2.72.33 7 7 0 0 0-2.12.93 4.44 4.44 0 0 0-1.38 1.43 3.57 3.57 0 0 0-.48 1.85 3.5 3.5 0 0 0 .48 1.81 4.45 4.45 0 0 0 1.38 1.43 7 7 0 0 0 2.12.93 10.5 10.5 0 0 0 2.74.32z"/><path class="cls-1" d="M31 30.19V1.07h12.84a8.27 8.27 0 0 1 3.71.84 9.62 9.62 0 0 1 2.93 2.21 10.47 10.47 0 0 1 1.93 3.12 9.38 9.38 0 0 1 .7 3.51 9.69 9.69 0 0 1-1.41 5.15 8.12 8.12 0 0 1-3.84 3.34l6.65 11h-6.36l-5.95-9.81h-5.58v9.76zm5.66-14.73h7.1a3 3 0 0 0 1.46-.37 3.71 3.71 0 0 0 1.17-1 5 5 0 0 0 .78-1.5 5.81 5.81 0 0 0 .29-1.85 5.26 5.26 0 0 0-.33-1.89 4.94 4.94 0 0 0-.88-1.5 4 4 0 0 0-1.27-1A3.31 3.31 0 0 0 43.47 6h-6.85zm21.41-4.92l.9-5h-1.63V0h5.54v5.62l-1.48 4.92zM75.38 30.6A9.7 9.7 0 0 1 68 27.36a11.1 11.1 0 0 1-2.11-3.55 12.37 12.37 0 0 1-.76-4.37 12.84 12.84 0 0 1 .72-4.35 11.41 11.41 0 0 1 2-3.53 9.16 9.16 0 0 1 3-2.38 8.67 8.67 0 0 1 3.86-.86A8.15 8.15 0 0 1 79 9.47a8.33 8.33 0 0 1 3 3V.25h5.5v23.62a2 2 0 0 0 .29 1.23 1.27 1.27 0 0 0 1 .41v4.68a12.49 12.49 0 0 1-2.34.29 3.81 3.81 0 0 1-2.45-.74 2.71 2.71 0 0 1-1-1.93l-.12-1.35a7.8 7.8 0 0 1-3.22 3.1 9.16 9.16 0 0 1-4.28 1.04zm1.43-4.68a5.15 5.15 0 0 0 1.6-.27 5.64 5.64 0 0 0 1.52-.76 6.66 6.66 0 0 0 1.25-1.15 4.79 4.79 0 0 0 .82-1.43v-5.12a6.06 6.06 0 0 0-.92-1.66 6.85 6.85 0 0 0-1.35-1.31 7.12 7.12 0 0 0-1.6-.88 4.56 4.56 0 0 0-1.64-.34 4.94 4.94 0 0 0-2.28.53A5.41 5.41 0 0 0 72.43 15a7 7 0 0 0-1.15 2.11 7.51 7.51 0 0 0-.41 2.46 6.76 6.76 0 0 0 .45 2.5 6.5 6.5 0 0 0 1.23 2 5.61 5.61 0 0 0 1.87 1.35 5.75 5.75 0 0 0 2.4.5zm22 4.68a8.16 8.16 0 0 1-2.91-.51 7 7 0 0 1-2.34-1.44A6.69 6.69 0 0 1 92 26.5a6.53 6.53 0 0 1-.55-2.71 6 6 0 0 1 .69-2.79A6.45 6.45 0 0 1 94 18.79a9.38 9.38 0 0 1 2.89-1.42 12.62 12.62 0 0 1 3.69-.51 15.92 15.92 0 0 1 2.81.25 11.54 11.54 0 0 1 2.44.7v-1.24a4.31 4.31 0 0 0-1.21-3.28 5 5 0 0 0-3.59-1.15 9.5 9.5 0 0 0-3.36.62 15.6 15.6 0 0 0-3.36 1.81l-1.68-3.49a15.87 15.87 0 0 1 8.94-2.75q4.64 0 7.2 2.28a8.34 8.34 0 0 1 2.56 6.58v6.69a1.93 1.93 0 0 0 .31 1.23 1.34 1.34 0 0 0 1 .41v4.68a12.27 12.27 0 0 1-2.42.29 3.67 3.67 0 0 1-2.4-.7 3 3 0 0 1-1-1.85l-.12-1.19a9.51 9.51 0 0 1-3.49 2.87 10 10 0 0 1-4.4.98zm1.56-4a7.17 7.17 0 0 0 2.65-.49 4.79 4.79 0 0 0 1.98-1.33 2 2 0 0 0 .9-1.56v-2.46a13.48 13.48 0 0 0-2.13-.59 11.54 11.54 0 0 0-2.22-.23 5.88 5.88 0 0 0-3.49 1 2.9 2.9 0 0 0-1.35 2.44 2.94 2.94 0 0 0 1.07 2.32 3.87 3.87 0 0 0 2.58.88zm49.5 3.59h-5.5V18.13a6.4 6.4 0 0 0-.88-3.77 2.87 2.87 0 0 0-2.44-1.19 4.61 4.61 0 0 0-3.05 1.25 6.88 6.88 0 0 0-2.05 3.26v12.51h-5.5V18.13a6.4 6.4 0 0 0-.88-3.77 2.87 2.87 0 0 0-2.44-1.19 4.68 4.68 0 0 0-3.06 1.23 6.69 6.69 0 0 0-2.07 3.24v12.55h-5.5V8.7h5v4a8.21 8.21 0 0 1 3.26-3.22 9.74 9.74 0 0 1 4.74-1.13 6.09 6.09 0 0 1 4.18 1.31 5.87 5.87 0 0 1 1.89 3.24 9.28 9.28 0 0 1 3.32-3.38 9 9 0 0 1 4.59-1.17 6.39 6.39 0 0 1 3.24.74 5.34 5.34 0 0 1 2 1.93 8.08 8.08 0 0 1 1 2.71 17.77 17.77 0 0 1 .27 3.08z"/></g></g></svg>